<svg viewBox="0 0 38.48 29.756">
                                    <path class="showpassword" d="M9.347,22.3a24.372,24.372,0,0,1-7.4-6.076c1.4-1.792,7.478-8.568,17.293-8.568a19.007,19.007,0,0,1,4.284.467L24.848,6.8a21.266,21.266,0,0,0-5.608-.7A23.973,23.973,0,0,0,.312,15.759L0,16.226l.312.467A23.6,23.6,0,0,0,8.179,23.47Z" transform="translate(0 -1.348)"></path><path class="showpassword" d="M42.037,16.577A24.619,24.619,0,0,0,34.169,9.8L33,10.968a24.372,24.372,0,0,1,7.4,6.076c-1.4,1.792-7.478,8.568-17.293,8.568a19.007,19.007,0,0,1-4.284-.467L17.5,26.469a25.1,25.1,0,0,0,5.608.7,23.973,23.973,0,0,0,18.928-9.659l.312-.467Z" transform="translate(-3.868 -2.166)"></path><path class="showpassword" d="M22.711,11.636a8.583,8.583,0,0,1,1.4.156l1.246-1.246A7.3,7.3,0,0,0,22.711,10,6.981,6.981,0,0,0,15.7,17.011a6.211,6.211,0,0,0,.545,2.648l1.246-1.246a4.313,4.313,0,0,1-.156-1.4A5.336,5.336,0,0,1,22.711,11.636Z" transform="translate(-3.471 -2.211)"></path><path class="showpassword" d="M23.948,23.823a8.583,8.583,0,0,1-1.4-.156L21.3,24.914a7.3,7.3,0,0,0,2.648.545,6.981,6.981,0,0,0,7.011-7.011,6.211,6.211,0,0,0-.545-2.648l-1.246,1.246a4.313,4.313,0,0,1,.156,1.4A5.288,5.288,0,0,1,23.948,23.823Z" transform="translate(-4.708 -3.493)"></path><path class="showpassword" d="M35.122.234a.753.753,0,0,0-1.091,0l-28.2,28.2a.753.753,0,0,0,0,1.091.841.841,0,0,0,.545.234.707.707,0,0,0,.545-.234l28.2-28.2A.753.753,0,0,0,35.122.234Z" transform="translate(-1.238)"></path>
                                </svg>